<svg width="433" height="279" viewBox="0 0 433 279" fill="none" xmlns="http://www.w3.org/2000/svg">
<g clip-path="url(#clip0_2_2566)">
<path d="M0 0H433V279H0V0Z" fill="#E5EAEE"/>
<path fill-rule="evenodd" clip-rule="evenodd" d="M306.05 147.7C300.886 147.7 296.7 151.886 296.7 157.05V287.95C296.7 293.114 300.886 297.3 306.05 297.3H436.95C442.114 297.3 446.3 293.114 446.3 287.95V157.05C446.3 151.886 442.114 147.7 436.95 147.7H306.05ZM278 157.05C278 141.558 290.558 129 306.05 129H436.95C452.442 129 465 141.558 465 157.05V287.95C465 303.441 452.442 316 436.95 316H306.05C290.558 316 278 303.441 278 287.95V157.05Z" fill="#8A9BA8" fill-opacity="0.15"/>
<path fill-rule="evenodd" clip-rule="evenodd" d="M338.775 185.1C336.193 185.1 334.1 187.193 334.1 189.775C334.1 192.357 336.193 194.45 338.775 194.45C341.357 194.45 343.45 192.357 343.45 189.775C343.45 187.193 341.357 185.1 338.775 185.1ZM315.4 189.775C315.4 176.865 325.865 166.4 338.775 166.4C351.685 166.4 362.15 176.865 362.15 189.775C362.15 202.685 351.685 213.15 338.775 213.15C325.865 213.15 315.4 202.685 315.4 189.775Z" fill="#8A9BA8" fill-opacity="0.15"/>
<path fill-rule="evenodd" clip-rule="evenodd" d="M402.289 197.189C405.94 193.537 411.86 193.537 415.511 197.189L462.261 243.939C465.913 247.59 465.913 253.51 462.261 257.161C458.61 260.813 452.69 260.813 449.038 257.161L408.9 217.023L312.661 313.261C309.01 316.913 303.09 316.913 299.439 313.261C295.787 309.61 295.787 303.69 299.439 300.039L402.289 197.189Z" fill="#8A9BA8" fill-opacity="0.15"/>
</g>
<path d="M0.5 0.5H432.5V278.5H0.5V0.5Z" stroke="#BFCCD6"/>
<defs>
<clipPath id="clip0_2_2566">
<path d="M0 0H433V279H0V0Z" fill="white"/>
</clipPath>
</defs>
</svg>
